<?xml version="1.0" encoding="UTF-8" standalone="no"?>
<svg
   xmlns:dc="http://purl.org/dc/elements/1.1/"
   xmlns:cc="http://creativecommons.org/ns#"
   xmlns:rdf="http://www.w3.org/1999/02/22-rdf-syntax-ns#"
   xmlns:svg="http://www.w3.org/2000/svg"
   xmlns="http://www.w3.org/2000/svg"
   xmlns:sodipodi="http://sodipodi.sourceforge.net/DTD/sodipodi-0.dtd"
   xmlns:inkscape="http://www.inkscape.org/namespaces/inkscape"
   inkscape:version="1.0 (4035a4fb49, 2020-05-01)"
   sodipodi:docname="bakingBad_ico.svg"
   id="svg30"
   version="1.1"
   viewBox="0 0 3508 4961"
   height="4961"
   width="3508">
  <metadata
     id="metadata34">
    <rdf:RDF>
      <cc:Work
         rdf:about="">
        <dc:format>image/svg+xml</dc:format>
        <dc:type
           rdf:resource="http://purl.org/dc/dcmitype/StillImage" />
        <dc:title></dc:title>
      </cc:Work>
    </rdf:RDF>
  </metadata>
  <sodipodi:namedview
     inkscape:current-layer="g25"
     inkscape:cy="1712.637"
     inkscape:cx="2253.7724"
     inkscape:zoom="0.27759683"
     showborder="false"
     showgrid="false"
     id="namedview32"
     inkscape:window-height="480"
     inkscape:window-width="640"
     inkscape:pageshadow="2"
     inkscape:pageopacity="0"
     guidetolerance="10"
     gridtolerance="10"
     objecttolerance="10"
     borderopacity="1"
     bordercolor="#666666"
     pagecolor="#ffffff" />
  <defs
     id="defs4">
    <style
       id="style2">
      .cls-1 {
        fill: #2e190b;
      }

      .cls-1, .cls-2, .cls-3 {
        fill-rule: evenodd;
      }

      .cls-2 {
        fill: #fee2be;
      }

      .cls-3 {
        fill: #fff;
      }
    </style>
  </defs>
  <g
     data-name="Group 8 copy"
     id="Group_8_copy">
    <g
       id="g25">
      <path
         id="path9"
         d="M2259,2334c53.84-8.84,185.07-31.92,221-44s38.92-20.95,51-36c0,0,141.38-47.22,279-132,54.1-33.32,55.55-45.48,67-109,9.8-54.38,42.08-220.54,60-331,11.59-71.42,8.12-99.52,1-157s-24.8-180.59-32-220c0,0,30.4-7.43,24-37s-19-137-19-137,23.01-2.86,73-63,79.4-104.894,83-164,17.96-144.738-137-212-218.11-60.7-295-66c-24.89-1.716-34.73-2.237-57-16s-90.45-80.075-291-94c-72.84-5.057-129.27-6.444-202,0-137.89,12.219-191.06,68.383-207,82-61.27-9.932-119.71-2.528-162,4-80.45,12.418-127.06,14.466-275,96-143.55,79.112-139.6,171.894-136,231s20.01,89.86,70,150,86.03,52,86.03,52-12.6,107.43-19,137,23.99,37,23.99,37c-7.19,39.41-24.88,162.52-31.99,220s-10.59,85.58,1,157c17.92,110.46,50.19,276.62,59.99,331,11.45,63.52,12.91,75.68,67,109,137.62,84.78,278.99,132,278.99,132,12.08,15.05,15.07,23.92,51,36s167.16,35.16,220.99,44S2205.16,2342.84,2259,2334Z"
         class="cls-1" />
      <path
         id="path11"
         d="M2224,1865c37.93-3.19,40.67-13.56,107-15,58.99-1.28,106.33,13.82,145,29s79.64,56.03,99,117,10,145,10,145,42.81-15.7,60-25,28.37-21.43,44-65,25.3-72.15,36-84,17.79-6.46,15,6-17.72,95.18-22,108-4.69,18.15,5,14c9.19-3.93,57.27-25.64,76.96-36.44,11.62-6.37,21.68-26.93,28.04-54.56s31.66-151.16,42-225c0,0-6.46,50.52-94,77s-244.82,1.3-306-24-134.96-87.31-151-130-23.18-67.87-26-89c-2.18-16.3-11.56-23.44-19-27s-54.74-10.89-69-11-23.74-.11-38,0-61.55,7.44-69,11-16.82,10.7-19,27c-2.82,21.13-9.96,46.31-25.99,89s-89.82,104.7-151,130-218.44,50.48-305.98,24-94-77-94-77c10.34,73.84,35.64,197.37,42,225s16.42,48.19,28.03,54.56c19.7,10.8,67.77,32.51,76.96,36.44,9.7,4.15,9.28-1.18,5-14s-19.21-95.54-21.99-108,4.3-17.85,14.99-6,20.38,40.43,36,84,26.81,55.7,44,65,60,25,60,25-9.36-84.03,10-145,60.32-101.82,98.99-117,86-30.28,145-29c66.32,1.44,69.06,11.81,106.99,15C2179.79,1867.68,2192.21,1867.68,2224,1865Z"
         class="cls-2" />
      <path
         id="path13"
         d="M2244,1382c37.28-2.43,141.06-12.31,289-31s315-42,315-42c7.94,33.51,34,167,34,167-16.78-32.61-43.05-60.39-88-69-112.3-21.51-268.38-11.07-346-2s-92.61,20.18-103,33-18,24-18,24c-9.49,1.39-14.72,2.74-31,4s-16.19-4.8-24-13-8.73-11.88-26-11-0.44,23.33,8,37,14.59,27.07,9,36-12.72,12.33-20,9-18.11-9.66-34-11a264.681,264.681,0,0,0-46-.24c-15.89,1.34-26.72,7.67-34,10.99s-14.41-.07-20-8.99,0.56-22.3,9-35.96,25.27-36.08,8-36.95-18.19,2.8-26,10.98-7.72,14.25-24,12.99-21.51-2.61-31-4c0,0-7.61-11.16-18-23.97s-25.38-23.9-103-32.96-233.7-19.49-346,2c-44.95,8.6-71.22,36.35-88,68.92,0,0,26.06-133.34,34-166.81,0,0,167.06,23.28,315,41.95s251.72,28.54,289,30.97A925.721,925.721,0,0,0,2244,1382Z"
         class="cls-2" />
      <path
         id="path15"
         d="M1803,1524s-56.18-14.51-87-30-56.96-27.92-84-32.87-52.09,5.06-68,19-26.45,53.87-28,87.87,5.02,126.51,15,153,27.19,62.83,54,71c63.76,19.43,150.24,21.27,254-5.94,73.03-19.16,101.43-45.95,124.9-83.05,12.94-20.43,17.05-41.2,17.09-52.04,0,0-25.96,3.47-55.99,9.03-57.19,10.59-170.99,22.84-204,15s-64.74-32.89-78-49c-3.79-4.61-7.13-6.92-13-6s-35,3-35,3,12.8-21.62,50-41S1735.45,1545.01,1803,1524Zm765.91,0.21s56.15-14.52,86.96-30.03,56.93-27.94,83.96-32.9,52.06,5.07,67.96,19.02,26.44,53.92,27.99,87.94-5.02,126.62-14.99,153.13-27.18,62.88-53.98,71.06c-63.73,19.44-150.16,21.29-253.88-5.95-73-19.18-101.38-45.99-124.84-83.11-12.93-20.46-17.04-41.24-17.08-52.09,0,0,25.95,3.47,55.96,9.04,57.17,10.6,170.92,22.85,203.91,15.01s64.7-32.91,77.96-49.04c3.79-4.61,7.13-6.92,12.99-6s34.99,3,34.99,3-12.79-21.64-49.98-41.03S2636.42,1545.23,2568.91,1524.21Z"
         class="cls-2" />
      <path
         id="path17"
         d="M2150,2074.96c-28.7.83-115.08-1.5-138.96-3.99s-29.08,2.46-9,7.97c30.35,8.35,88.98,29.92,88.98,29.92-1.65,19.92-24.89,46.44-86.98,33.9-82.59-16.68-85.65-73.29-84.98-90.74s23.7-37.39,71.98-41.88,120.06-4.34,149.96-3.98,60.09,0.2,90-.16,101.71-.5,150,4,71.33,24.5,72,42-2.39,74.27-85,91c-62.11,12.58-85.35-14.02-87-34,0,0,58.64-21.63,89-30,20.09-5.54,14.89-10.5-9-8s-110.29,4.84-139,4S2178.7,2074.12,2150,2074.96Z"
         class="cls-2" />
      <path
         id="path19"
         d="M2676,1605s-27.42-17.55-57-27c0,0,2.2,45.27-27,65C2592,1643,2644.7,1645.5,2676,1605Zm-189,42s-38.93-14.4-44-53c0,0-21.81,20.46-29,32C2414,1626,2439.64,1643.73,2487,1647Zm-791-42s27.42-17.55,57-27c0,0-2.2,45.27,27,65C1780,1643,1727.3,1645.5,1696,1605Zm189,42s38.93-14.4,44-53c0,0,21.81,20.46,29,32C1958,1626,1932.36,1643.73,1885,1647Z"
         class="cls-3" />
      <path
         id="path21"
         d="M2231,1051s159.12-23.26,200-21c36.62,2.03,78.62,12.3,114,19s83.58,10.3,123,5,97-14,97-14c16.6,7.82,108,58,108,58s17.36,127.14,20,143-0.89,24.13-19,30c-23.63,7.66-158.82,28.01-248,42-177.64,27.88-341.47,41.4-379,45a691.494,691.494,0,0,1-122.01,0c-37.54-3.59-201.42-17.12-379.12-44.98-89.21-13.99-224.45-34.32-248.08-41.98-18.12-5.86-21.65-14.13-19.01-29.98S1499,1127,1499,1127s214.62-54.63,322-84c60.1,16.18,108.37,24.03,145,22,40.89-2.26,120.59-4.52,157-6S2231,1051,2231,1051Z"
         class="cls-3" />
      <path
         id="path23"
         d="M1482,1096.22s-43.33,2.52-77.42-31.55c-50.69-50.66-61.31-80.436-64.78-133.972s-11.35-136.216,127.06-207.872c142.65-73.849,188.95-77.061,266.52-88.308,29.45-4.271,73.72-10.069,114.62-7.518-19.7,30.159-45.44,84.648-33,141,9.08,41.1,38.28,79.477,85,93,9.31-13.324,12.04-16,21-30-40.98-23.2-57.74-32.672-64-78-6.26-45.368,18.41-94.107,34-113,18.72-22.687,68.18-69.613,198.18-83.377,69.98-7.41,124.54-4.581,194.77,0,193.37,12.612,259.11,72.675,280.59,85.141s30.96,12.937,54.96,14.492c74.14,4.8,133.92-.041,283.34,60.881s141.6,138.329,131,190.918C3023.04,961.59,3004.1,999.344,2954,1049c-18.63,18.47-43,29.22-43,29.22s-50.34-33.34-132-72c-13-6.16-17.93-4.21-30,0-129.95,45.31-272.42-33.406-355-20-123.05,19.964-234.27,28.144-361,37-102.61,7.17-133.63-10.35-181.65-19.2-13.84-2.55-29.02.46-44.35,3.89C1712.93,1028.96,1482,1096.22,1482,1096.22Z"
         class="cls-3" />
    </g>
  </g>
</svg>
