<svg width="124" height="25" viewBox="0 0 124 25" fill="none" xmlns="http://www.w3.org/2000/svg">
	<path
		d="M11 2.26195C11 1.88058 10.5902 1.63961 10.257 1.82502L3.68599 5.48078C3.34332 5.67142 3.34347 6.16435 3.68625 6.35478L10.2572 10.0054C10.5905 10.1905 11 9.94952 11 9.56828V2.26195Z"
		fill="#FF885E"
	/>
	<path
		d="M2.74319 8.11882C2.40985 7.93363 2.00022 8.17476 2.00037 8.55609L2.00306 15.678C2.00321 16.0592 2.41269 16.3 2.74588 16.1149L9.1542 12.5547C9.4971 12.3642 9.4971 11.8711 9.1542 11.6806L2.74319 8.11882Z"
		fill="#FF885E"
	/>
	<path
		d="M3.89261 17.7657C3.54971 17.9562 3.54971 18.4493 3.89261 18.6398L10.2572 22.1757C10.5905 22.3609 11 22.1199 11 21.7387V14.6668C11 14.2856 10.5905 14.0446 10.2572 14.2298L3.89261 17.7657Z"
		fill="#FF885E"
	/>
	<path
		d="M13 21.7387C13 22.1199 13.4096 22.3609 13.7429 22.1757L20.1075 18.6398C20.4504 18.4493 20.4504 17.9562 20.1075 17.7657L13.7429 14.2298C13.4096 14.0446 13 14.2856 13 14.6668V21.7387Z"
		fill="#FF885E"
	/>
	<path
		d="M21.2542 16.1149C21.5874 16.3 21.9969 16.0592 21.997 15.678L21.9997 8.55609C21.9999 8.17476 21.5902 7.93363 21.2569 8.11882L14.8459 11.6806C14.503 11.8711 14.503 12.3642 14.8459 12.5547L21.2542 16.1149Z"
		fill="#FF885E"
	/>
	<path
		d="M20.3138 6.35478C20.6566 6.16435 20.6567 5.67142 20.3141 5.48077L13.7431 1.82502C13.4099 1.6396 13 1.88057 13 2.26195V9.56828C13 9.94952 13.4096 10.1905 13.7429 10.0054L20.3138 6.35478Z"
		fill="#FF885E"
	/>
	<path
		d="M37.248 20.264C36.048 20.264 34.96 20.008 33.984 19.496C33.024 18.968 32.264 18.24 31.704 17.312C31.144 16.368 30.864 15.28 30.864 14.048C30.864 12.784 31.136 11.688 31.68 10.76C32.24 9.832 33 9.112 33.96 8.6C34.92 8.072 36.016 7.808 37.248 7.808C38.32 7.808 39.232 7.968 39.984 8.288C40.736 8.608 41.344 9.056 41.808 9.632C42.272 10.192 42.608 10.848 42.816 11.6C43.04 12.352 43.152 13.168 43.152 14.048C43.152 14.752 43.04 15.472 42.816 16.208C42.592 16.928 42.248 17.6 41.784 18.224C41.32 18.832 40.712 19.328 39.96 19.712C39.208 20.08 38.304 20.264 37.248 20.264ZM38.256 17.864C39.2 17.864 40.016 17.704 40.704 17.384C41.392 17.064 41.92 16.616 42.288 16.04C42.656 15.464 42.84 14.8 42.84 14.048C42.84 13.232 42.648 12.544 42.264 11.984C41.896 11.408 41.368 10.968 40.68 10.664C40.008 10.36 39.2 10.208 38.256 10.208C36.928 10.208 35.896 10.56 35.16 11.264C34.424 11.968 34.056 12.896 34.056 14.048C34.056 14.816 34.232 15.488 34.584 16.064C34.936 16.624 35.424 17.064 36.048 17.384C36.688 17.704 37.424 17.864 38.256 17.864ZM42.84 3.272H45.96V20H43.056C43.008 19.632 42.96 19.16 42.912 18.584C42.864 17.992 42.84 17.44 42.84 16.928V3.272ZM52.8988 2.84V5.576H49.2748V2.84H52.8988ZM49.5148 8.072H52.6348V20H49.5148V8.072ZM64.4327 20.288C63.3767 20.288 62.4727 20.104 61.7207 19.736C60.9847 19.352 60.3847 18.856 59.9207 18.248C59.4567 17.624 59.1127 16.944 58.8887 16.208C58.6647 15.472 58.5527 14.752 58.5527 14.048C58.5527 13.168 58.6567 12.352 58.8647 11.6C59.0887 10.848 59.4327 10.192 59.8967 9.632C60.3607 9.056 60.9607 8.608 61.6967 8.288C62.4487 7.968 63.3607 7.808 64.4327 7.808C65.6327 7.808 66.7127 8.072 67.6727 8.6C68.6327 9.128 69.3927 9.864 69.9527 10.808C70.5287 11.736 70.8167 12.816 70.8167 14.048C70.8167 15.312 70.5287 16.416 69.9527 17.36C69.3767 18.288 68.6087 19.008 67.6487 19.52C66.6887 20.032 65.6167 20.288 64.4327 20.288ZM63.4247 17.864C64.2727 17.864 65.0087 17.704 65.6327 17.384C66.2727 17.064 66.7607 16.624 67.0967 16.064C67.4487 15.488 67.6247 14.816 67.6247 14.048C67.6247 12.896 67.2567 11.968 66.5207 11.264C65.8007 10.56 64.7687 10.208 63.4247 10.208C62.5767 10.208 61.8007 10.36 61.0967 10.664C60.4087 10.968 59.8647 11.408 59.4647 11.984C59.0647 12.544 58.8647 13.232 58.8647 14.048C58.8647 14.816 59.0487 15.488 59.4167 16.064C59.7847 16.624 60.3127 17.064 61.0007 17.384C61.6887 17.704 62.4967 17.864 63.4247 17.864ZM55.7447 8.072H58.7207L58.8647 11.24V24.8H55.7447V8.072ZM78.9199 20.264C77.7199 20.264 76.6319 20.008 75.6559 19.496C74.6959 18.968 73.9359 18.24 73.3759 17.312C72.8159 16.368 72.5359 15.28 72.5359 14.048C72.5359 12.784 72.8079 11.688 73.3519 10.76C73.9119 9.832 74.6719 9.112 75.6319 8.6C76.5919 8.072 77.6879 7.808 78.9199 7.808C79.9919 7.808 80.9039 7.968 81.6559 8.288C82.4079 8.608 83.0159 9.056 83.4799 9.632C83.9439 10.192 84.2799 10.848 84.4879 11.6C84.7119 12.352 84.8239 13.168 84.8239 14.048C84.8239 14.752 84.7119 15.472 84.4879 16.208C84.2639 16.928 83.9199 17.6 83.4559 18.224C82.9919 18.832 82.3839 19.328 81.6319 19.712C80.8799 20.08 79.9759 20.264 78.9199 20.264ZM79.9279 17.864C80.8719 17.864 81.6879 17.704 82.3759 17.384C83.0639 17.064 83.5919 16.616 83.9599 16.04C84.3279 15.464 84.5119 14.8 84.5119 14.048C84.5119 13.232 84.3199 12.544 83.9359 11.984C83.5679 11.408 83.0399 10.968 82.3519 10.664C81.6799 10.36 80.8719 10.208 79.9279 10.208C78.5999 10.208 77.5679 10.56 76.8319 11.264C76.0959 11.968 75.7279 12.896 75.7279 14.048C75.7279 14.816 75.9039 15.488 76.2559 16.064C76.6079 16.624 77.0959 17.064 77.7199 17.384C78.3599 17.704 79.0959 17.864 79.9279 17.864ZM84.5119 3.272H87.6319V20H84.7279C84.6799 19.632 84.6319 19.16 84.5839 18.584C84.5359 17.992 84.5119 17.44 84.5119 16.928V3.272ZM104.795 20H101.675V8.072H104.795V20ZM101.843 14.264L101.867 15.08C101.835 15.304 101.755 15.632 101.627 16.064C101.499 16.48 101.299 16.928 101.027 17.408C100.771 17.888 100.435 18.352 100.019 18.8C99.6027 19.232 99.0907 19.592 98.4827 19.88C97.8747 20.152 97.1547 20.288 96.3227 20.288C95.6667 20.288 95.0187 20.208 94.3787 20.048C93.7547 19.888 93.1867 19.624 92.6747 19.256C92.1627 18.872 91.7547 18.36 91.4507 17.72C91.1467 17.08 90.9947 16.272 90.9947 15.296V8.072H94.1147V14.768C94.1147 15.536 94.2347 16.144 94.4747 16.592C94.7307 17.024 95.0987 17.328 95.5787 17.504C96.0587 17.68 96.6267 17.768 97.2827 17.768C98.1467 17.768 98.8907 17.584 99.5147 17.216C100.139 16.832 100.643 16.368 101.027 15.824C101.427 15.28 101.699 14.76 101.843 14.264ZM116.323 20.288C115.267 20.288 114.363 20.104 113.611 19.736C112.875 19.352 112.275 18.856 111.811 18.248C111.347 17.624 111.003 16.944 110.779 16.208C110.555 15.472 110.443 14.752 110.443 14.048C110.443 13.168 110.547 12.352 110.755 11.6C110.979 10.848 111.323 10.192 111.787 9.632C112.251 9.056 112.851 8.608 113.587 8.288C114.339 7.968 115.251 7.808 116.323 7.808C117.523 7.808 118.603 8.072 119.563 8.6C120.523 9.128 121.283 9.864 121.843 10.808C122.419 11.736 122.707 12.816 122.707 14.048C122.707 15.312 122.419 16.416 121.843 17.36C121.267 18.288 120.499 19.008 119.539 19.52C118.579 20.032 117.507 20.288 116.323 20.288ZM115.315 17.864C116.163 17.864 116.899 17.704 117.523 17.384C118.163 17.064 118.651 16.624 118.987 16.064C119.339 15.488 119.515 14.816 119.515 14.048C119.515 12.896 119.147 11.968 118.411 11.264C117.691 10.56 116.659 10.208 115.315 10.208C114.467 10.208 113.691 10.36 112.987 10.664C112.299 10.968 111.755 11.408 111.355 11.984C110.955 12.544 110.755 13.232 110.755 14.048C110.755 14.816 110.939 15.488 111.307 16.064C111.675 16.624 112.203 17.064 112.891 17.384C113.579 17.704 114.387 17.864 115.315 17.864ZM107.635 8.072H110.611L110.755 11.24V24.8H107.635V8.072Z"
		fill="white"
		fill-opacity="0.85"
	/>
</svg>