<?xml version="1.0" encoding="UTF-8" standalone="no"?>
<svg
   xmlns:dc="http://purl.org/dc/elements/1.1/"
   xmlns:cc="http://creativecommons.org/ns#"
   xmlns:rdf="http://www.w3.org/1999/02/22-rdf-syntax-ns#"
   xmlns:svg="http://www.w3.org/2000/svg"
   xmlns="http://www.w3.org/2000/svg"
   xmlns:sodipodi="http://sodipodi.sourceforge.net/DTD/sodipodi-0.dtd"
   xmlns:inkscape="http://www.inkscape.org/namespaces/inkscape"
   id="Group_6_copy_4"
   data-name="Group 6 copy 4"
   width="3508"
   height="4961"
   viewBox="0 0 3508 4961"
   version="1.1"
   sodipodi:docname="tezosCat_ico.svg"
   inkscape:version="1.0 (4035a4fb49, 2020-05-01)">
  <metadata
     id="metadata33">
    <rdf:RDF>
      <cc:Work
         rdf:about="">
        <dc:format>image/svg+xml</dc:format>
        <dc:type
           rdf:resource="http://purl.org/dc/dcmitype/StillImage" />
        <dc:title />
      </cc:Work>
    </rdf:RDF>
  </metadata>
  <sodipodi:namedview
     inkscape:document-rotation="0"
     pagecolor="#ffffff"
     bordercolor="#666666"
     borderopacity="1"
     objecttolerance="10"
     gridtolerance="10"
     guidetolerance="10"
     inkscape:pageopacity="0"
     inkscape:pageshadow="2"
     inkscape:window-width="640"
     inkscape:window-height="480"
     id="namedview31"
     showgrid="false"
     showborder="false"
     inkscape:zoom="0.31606114"
     inkscape:cx="1927.0246"
     inkscape:cy="1537.028"
     inkscape:current-layer="Group_6_copy_4" />
  <defs
     id="defs4">
    <style
       id="style2">
      .cls-1 {
        fill: #ffbf19;
      }

      .cls-1, .cls-2, .cls-3, .cls-4 {
        fill-rule: evenodd;
      }

      .cls-2 {
        fill: #fbd87e;
      }

      .cls-3 {
        fill: #2e190b;
      }

      .cls-4 {
        fill: #fdfdfd;
      }
    </style>
  </defs>
  <g
     id="Group_9_copy"
     data-name="Group 9 copy">
    <path
       class="cls-1"
       d="M2232,493c37.39,0.75,156.22,2.823,251,42s186,142,186,142c40.49,7.2,100.03,18.791,172,52s140.4,84.978,167,122,40.73,62.269,41,115c0.27,52.71-8.3,78.66-21,102-11.12,20.45-38,41-38,41,17.71,0.95,48.7,11.51,57,24s23.24,27.33-10,157c-37.15,144.92-111,251-111,251s21.23,18.33,85,100,78.99,154.42,71,191-51.34,139.84-192,272c-212.71,199.86-413.38,215.46-487.63,228.91-37.2,6.74-126.12,17.1-215.92,17.08-89.43-.01-179.75-10.37-216.8-17.08-74.25-13.45-274.96-29.05-487.67-228.91-140.67-132.16-184.02-235.42-192.01-272s7.23-109.33,71-191,85-100,85-100-35.82-79.08-72.97-224c-33.24-129.67,3.7-209.51,12-222s35.29-34.05,53-35c0,0-32.87-32.64-46-53-12.62-19.564-25.36-51.5-21-98,2.39-25.5,15.3-59.945,46-97,29.1-35.13,49.03-57.686,120-93,78.74-39.181,193.41-71.619,321-80,0,0,25.55-47.862,93-82,64.43-32.609,88.76-41.8,153.95-55.126C2142.07,494.287,2194.61,492.25,2232,493Z"
       id="path9" />
    <path
       id="path859"
       d="M 1395.0059 1083.7402 C 1390.7165 1087.7612 1387.194 1091.6984 1385 1095 C 1376.7 1107.49 1339.76 1187.33 1373 1317 C 1410.15 1461.92 1445.9707 1541 1445.9707 1541 C 1445.9707 1541 1438.1473 1547.7961 1417.9961 1571.0449 C 1432.6734 1570.635 1444.3057 1568.6431 1449 1564 C 1466.89 1546.3 1470.0805 1542.4294 1481.2305 1531.6094 C 1489.9805 1523.1294 1492.9296 1519.2901 1492.0996 1509.8301 C 1490.7896 1494.7401 1476.6902 1371.4692 1476.4902 1350.1992 C 1476.3302 1332.8892 1478.2202 1323.8903 1489.6602 1310.5703 C 1505.7602 1291.8003 1579.8097 1230.3905 1600.6797 1213.3105 C 1606.6197 1208.4505 1599.9707 1203.1406 1599.9707 1203.1406 C 1535.9038 1131.5087 1449.4964 1098.3872 1395.0059 1083.7402 z M 3031.7949 1133.9004 C 2985.6011 1133.5708 2908.2188 1143.5312 2824 1199 C 2824 1199 2817.1 1203.09 2822 1209 C 2837.97 1228.28 2893.43 1295.32 2907 1316 C 2916.63 1330.68 2917.37 1339.85 2915 1357 C 2912.09 1378.08 2873.22 1489.2 2870 1504 C 2867.98 1513.29 2869.05 1518.73 2878 1527 C 2888.83 1537.02 2893.03 1540.2 2912 1558 C 2917.5442 1563.1997 2933.1821 1566.7097 2952.2734 1569.0879 C 2933.3895 1547.4228 2926 1541 2926 1541 C 2926 1541 2999.85 1434.92 3037 1290 C 3068.9614 1165.3177 3056.392 1146.818 3047.998 1134.4746 C 3043.1299 1134.1653 3037.7531 1133.9429 3031.7949 1133.9004 z "
       style="fill:#fbd87e;fill-opacity:1" />
    <path
       id="path13"
       d="M 2217.3281 492.85547 C 2181.7158 492.84665 2137.4292 495.23442 2104.9492 501.87305 C 2039.7592 515.19905 2015.43 524.391 1951 557 C 1883.55 591.138 1858 639 1858 639 C 1730.41 647.381 1615.74 679.819 1537 719 C 1466.03 754.314 1446.1 776.87 1417 812 C 1386.3 849.055 1373.39 883.5 1371 909 C 1366.64 955.5 1379.38 987.436 1392 1007 C 1405.13 1027.36 1438 1060 1438 1060 C 1437.8027 1060.0106 1437.598 1060.0371 1437.3984 1060.0527 C 1552.058 1074.6554 1621.5085 1106.1909 1680 1140.8203 C 1743.4 1178.3603 1742.66 1181.79 1778 1245 C 1813.34 1308.21 1822.6406 1347 1822.6406 1347 C 1950.2006 1338.5 2161 1341 2161 1341 L 2211 1341 C 2211 1341 2450.44 1339.5 2578 1348 C 2578 1348 2584.66 1308.21 2620 1245 C 2655.34 1181.79 2661.58 1171.96 2735 1149 C 2799.96 1128.69 2855.99 1111.27 2990 1109 C 2990 1109 3016.88 1088.45 3028 1068 C 3040.7 1044.66 3049.27 1018.71 3049 966 C 3048.73 913.269 3034.6 888.022 3008 851 C 2981.4 813.978 2912.97 762.209 2841 729 C 2769.03 695.791 2709.49 684.2 2669 677 C 2669 677 2577.78 574.177 2483 535 C 2388.22 495.823 2269.39 493.75 2232 493 C 2227.3263 492.90625 2222.4156 492.85673 2217.3281 492.85547 z " />
    <path
       class="cls-4"
       d="M2146,1157c-166.7,3.4-366,25-366,25,25.51,37.65,63,125,63,125,126.75-7.16,301-9,301-9h84s200.25,1.84,327,9c0,0,33.14-90.5,68-125,0,0-230.3-21.6-397-25C2195.63,1156.38,2176.37,1156.38,2146,1157Z"
       id="path15" />
    <path
       class="cls-4"
       d="M2221,1129.82c171.42,2.03,279.18,12.42,427,25.18,0,0,53.52-30.8,154-48,92.9-15.91,135.31-5.32,163-4,0,0,60.03-36.87,57.54-130.824-1.34-50.555-13.93-74.786-39.43-110.292s-101.07-85.157-170.06-117.006-118.06-39.968-156.87-46.871c0,0-95.44-101.614-186.29-139.187s-204.75-39.561-240.59-40.281-52.8-.545-88.3,4.461c-37.27,5.256-81.65,15.97-153,50-61.45,29.308-91.7,71.4-100,87s-26.46,72.6-10,121c13.64,40.123,45.04,74.221,60,86,5.8,4.568,5.5,11.477,5,12-4.23,4.445-9.4,8.467-17,16-0.47.464-6.29,2.626-10,0-22.84-16.174-66.91-58.243-84-106-16.94-47.318-3.28-95.127,10-121-95.51,4.866-187.32,26.352-278.88,67.287C1502.81,762.25,1473.2,791.146,1446,822c-28.91,32.79-44.22,64.622-45,93-1.2,43.811,6.1,65.636,21,87,13.84,19.85,39,53,39,53,56.02-1.81,80.84-1.25,148,23,54.65,19.73,94.03,40.18,148,78C1757,1156,2049.58,1127.8,2221,1129.82Z"
       id="path17" />
    <path
       id="path19"
       d="M 1425.5684 1047.168 C 1432.6917 1054.7065 1438 1060 1438 1060 C 1420.29 1060.95 1393.3 1082.51 1385 1095 C 1376.7 1107.49 1339.76 1187.33 1373 1317 C 1410.15 1461.92 1445.9707 1541 1445.9707 1541 C 1445.9707 1541 1424.7407 1559.33 1360.9707 1641 C 1297.2007 1722.67 1281.9807 1795.42 1289.9707 1832 C 1297.9607 1868.58 1341.3105 1971.84 1481.9805 2104 C 1694.6905 2303.86 1895.4004 2319.4602 1969.6504 2332.9102 C 2006.7004 2339.6202 2097.0192 2349.9802 2186.4492 2349.9902 C 2276.2492 2350.0102 2365.1691 2339.6502 2402.3691 2332.9102 C 2476.6191 2319.4602 2677.29 2303.86 2890 2104 C 3030.66 1971.84 3074.01 1868.58 3082 1832 C 3089.99 1795.42 3074.77 1722.67 3011 1641 C 2947.23 1559.33 2926 1541 2926 1541 C 2926 1541 2999.85 1434.92 3037 1290 C 3070.24 1160.33 3055.3 1145.49 3047 1133 C 3038.7 1120.51 3007.71 1109.95 2990 1109 C 2990 1109 2990.3546 1108.7204 2990.5 1108.6074 C 2982.7164 1108.294 2974.8841 1108.083 2967 1108 C 2865.63 1106.94 2806 1124 2806 1124 C 2975.77 1109.79 3018.96 1131.86 3027 1144 C 3035.04 1156.14 3040.9598 1171.9002 3008.7598 1297.9102 C 2972.7698 1438.7402 2895.2402 1542.8301 2895.2402 1542.8301 C 2895.2402 1542.8301 2920.8101 1562.63 2982.5801 1642 C 3044.3501 1721.37 3060.0896 1789.0791 3052.3496 1824.6191 C 3044.6096 1860.1591 3002.6209 1960.5095 2866.3809 2088.9395 C 2660.3509 2283.1595 2465.9708 2298.3306 2394.0508 2311.3906 C 2358.0208 2317.9406 2271.8902 2328.0102 2184.9102 2327.9902 C 2098.2902 2327.9802 2010.8099 2317.9106 1974.9199 2311.3906 C 1902.9999 2298.3306 1708.5908 2283.1595 1502.5508 2088.9395 C 1366.3108 1960.5095 1324.3103 1860.1691 1316.5703 1824.6191 C 1308.8303 1789.0691 1323.5796 1722.36 1385.3496 1643 C 1447.1196 1563.64 1467.6797 1545.8301 1467.6797 1545.8301 C 1467.6797 1545.8301 1432.99 1464.9804 1397 1324.1504 C 1364.8 1198.1304 1396.96 1120.14 1405 1108 C 1413.04 1095.86 1432.19 1053.56 1553 1080 C 1553 1080 1471.4322 1059.4972 1425.5684 1047.168 z " />
    <path
       class="cls-3"
       d="M2329,1659s9.72,12.4,18,25c4.11,6.25,6.1,5.27,12,2s25.7-19.15,53-36,59.58-25.4,103-34,69.77-5.35,157-6c11.59-.09,12.31-3.68,13-8s0.54-17,0-26c-0.45-7.43-2.3-8.48-11-11s-45.13-9.89-117-19-111.14,3.92-133,14c-24.68,11.38-75.32,66.96-88,82C2326.6,1653.14,2326.93,1656.01,2329,1659Zm-299,20s9.99-13.25,15-21c3.91-6.05,2.88-7.1,0-12s-25.27-38.88-62-72-50.44-34.69-87-43-66.82-7.21-103,0-73.46,19.24-98,20c-11.52.36-11.77,6.4-12,13-0.15,4.19-.9,22.78-1,29s-0.78,9.21,11,7,35.01-9.4,113,1,92.08,20.37,136,37,65.9,34,77,40C2027.61,1682.65,2027.08,1682.16,2030,1679Z"
       id="path21" />
    <path
       class="cls-3"
       d="M2190,2003c18.94,9.58,44.94,24.15,78,36s65.52,22.12,109,22c47.96-.13,76.57-1.23,104-19s44.41-34.76,57-51,11.91-32.99,12-45-5.99-45.38-8-55-3.66-10.35-12-10-24.56,4.19-31,7-5.58,3.99-3,16,8.6,39.78,6,60c-2.06,15.97-21.29,38.48-56,56s-90.69,12.35-142,0-69.71-23.04-82-32-14.48-13.96-16-23a178.69,178.69,0,0,1-2-24c-0.1-4.7-.52-8.11,3-9,21.49-5.44,44.43-34.91,45-39s0.66-5.45,7-7,12.12-.6,30-9,25.83-24.54,26-36-12.18-22.39-26-29-38.19-6.63-51-2-25.97,8.3-37,9a214.7,214.7,0,0,1-30.01.24c-11.05-.7-24.22-4.37-37.04-8.99s-37.22-4.61-51.06,1.99-26.2,17.52-26.03,28.98,8.13,27.57,26.03,35.96,23.68,7.44,30.03,8.99,6.43,2.91,7.01,7,23.54,33.52,45.05,38.96c3.52,0.89,3.1,4.29,3,8.99a175.039,175.039,0,0,1-2,23.97c-1.52,9.04-3.71,14.03-16.02,22.98s-30.72,19.64-82.09,31.97-107.4,17.5-142.16,0-54-39.99-56.06-55.94c-2.61-20.2,3.42-47.95,6.01-59.95s3.44-13.17-3.01-15.98-22.68-6.64-31.03-6.99-10,.38-12.02,9.99-8.09,42.94-8.01,54.94-0.59,28.73,12.02,44.96,29.6,33.2,57.06,50.95,56.11,18.85,104.12,18.98c43.53,0.12,76.02-10.14,109.12-21.98a507.717,507.717,0,0,0,78.09-35.96C2186,2000.81,2186,2000.98,2190,2003Z"
       id="path23" />
    <path
       class="cls-3"
       d="M2591,1861c1.44,5.16,5.54,9.84,14,4s102.28-72.58,131-89,76.42-32.52,116-41,75.84-17.38,83-19,6.03-5.63,3-10a110.29,110.29,0,0,0-18-19c-4.95-3.78-7.41-4.43-17-3s-69.63,14.11-113,25-65.8,20.28-105,45-85.53,68.77-94,76c-5.2,4.44-6.43,5.43-5,11S2588.54,1852.17,2591,1861Zm10,49c0.38,5.39,1.46,12.02,2,16s2.03,7.23,8,6,96.06-20.07,141-26,66.36-5.79,105-4,67.88,5.98,76,7c6.4,0.8,7.38-.04,10-6s4.79-11.35,7-17c2.19-5.61,1.8-10.45-6-12s-59.77-9.01-108-11-90.75,2.24-124,10-95.53,26.69-103,29S2600.62,1904.61,2601,1910Zm2,66c-0.36,5.59-.7,14.62-1,19s0.16,5.38,6,7,58.68,14.93,83,24,45.81,20.62,75,36,55.55,32.01,61,35,8.08,2.07,11-1,11.87-12.28,16-16,3.75-6.99-1-11-41.32-26.41-72-44-53.98-26.16-81-35-82.15-17.79-89-19S2603.19,1972.98,2603,1976Zm-821.57-115.09c-1.44,5.16-5.54,9.85-14.01,4s-102.36-72.66-131.1-89.09-76.48-32.56-116.09-41.05-75.89-17.4-83.06-19.02-6.03-5.64-3-10.01a110.1,110.1,0,0,1,18.01-19.02c4.96-3.78,7.41-4.44,17.01-3s69.69,14.13,113.09,25.03,65.85,20.3,105.08,45.04,85.59,68.84,94.07,76.08c5.21,4.45,6.44,5.44,5.01,11.01S1783.9,1852.07,1781.43,1860.91Zm-10,49.05c-0.39,5.39-1.46,12.03-2.01,16.01s-2.03,7.24-8,6.01-96.14-20.09-141.11-26.03-66.41-5.79-105.08-4-67.94,5.99-76.06,7.01c-6.41.8-7.38-.05-10.01-6.01s-4.79-11.37-7-17.02c-2.2-5.61-1.81-10.46,6-12.01s59.82-9.02,108.08-11.01,90.82,2.24,124.1,10.01,95.61,26.72,103.08,29.03S1771.81,1904.56,1771.43,1909.96Zm-2.01,66.07c0.36,5.6.71,14.63,1,19.02s-0.16,5.38-6,7-58.73,14.95-83.06,24.03-45.85,20.64-75.06,36.04-55.59,32.04-61.05,35.03-8.09,2.07-11.01-1-11.87-12.29-16.01-16.01-3.75-7,1-11.02,41.35-26.43,72.06-44.04,54.02-26.19,81.06-35.04,82.21-17.8,89.07-19.02S1769.23,1973.01,1769.42,1976.03Z"
       id="path25" />
  </g>
</svg>
