<?xml version="1.0" encoding="UTF-8" standalone="no"?>
<svg
   xmlns:dc="http://purl.org/dc/elements/1.1/"
   xmlns:cc="http://creativecommons.org/ns#"
   xmlns:rdf="http://www.w3.org/1999/02/22-rdf-syntax-ns#"
   xmlns:svg="http://www.w3.org/2000/svg"
   xmlns="http://www.w3.org/2000/svg"
   xmlns:sodipodi="http://sodipodi.sourceforge.net/DTD/sodipodi-0.dtd"
   xmlns:inkscape="http://www.inkscape.org/namespaces/inkscape"
   width="3508"
   height="4961"
   viewBox="0 0 3508 4961"
   version="1.1"
   id="svg15"
   sodipodi:docname="tezosCat.svg"
   inkscape:version="1.0 (4035a4fb49, 2020-05-01)">
  <metadata
     id="metadata19">
    <rdf:RDF>
      <cc:Work
         rdf:about="">
        <dc:format>image/svg+xml</dc:format>
        <dc:type
           rdf:resource="http://purl.org/dc/dcmitype/StillImage" />
        <dc:title />
      </cc:Work>
    </rdf:RDF>
  </metadata>
  <sodipodi:namedview
     inkscape:document-rotation="0"
     pagecolor="#ffffff"
     bordercolor="#666666"
     borderopacity="1"
     objecttolerance="10"
     gridtolerance="10"
     guidetolerance="10"
     inkscape:pageopacity="0"
     inkscape:pageshadow="2"
     inkscape:window-width="640"
     inkscape:window-height="480"
     id="namedview17"
     showgrid="false"
     showborder="false"
     inkscape:zoom="0.35544574"
     inkscape:cx="1584.3303"
     inkscape:cy="1302.0594"
     inkscape:current-layer="svg15" />
  <defs
     id="defs4">
    <style
       id="style2">
      .cls-1 {
        fill: #363636;
        fill-rule: evenodd;
      }
    </style>
  </defs>
  <path
     id="path948"
     d="M 1918.4805 743.58594 C 1847.8705 743.57994 1777.2199 751.84478 1742.9199 759.17578 C 1661.1699 776.65078 1631.8104 787.32881 1570.6504 836.63281 C 1509.3304 886.06681 1446.9799 918.39158 1353.4199 960.76758 C 1256.8099 1004.5296 1234.0801 1021.61 1174.8301 1110 C 1122.7001 1187.77 1084.8092 1272.5408 1078.4492 1353.0508 C 1069.4189 1467.4177 1101.9729 1523.8261 1113.5176 1539.9395 C 1116.0091 1594.6386 1134.3986 1669.1662 1147.2695 1695.1797 C 1161.4895 1723.9197 1170.1602 1740.6798 1179.7402 1773.0098 C 1189.3202 1805.3398 1212.5898 1843.2891 1212.5898 1843.2891 C 1197.0298 1869.6291 1190.8203 1916.2598 1190.8203 1916.2598 C 1114.1603 1988.1698 1065.7695 2073.3892 1049.2695 2105.9492 C 1032.3995 2139.2292 1021.4506 2178.7593 1054.8906 2239.5293 C 1088.3306 2300.2993 1128.6798 2358.5695 1274.3398 2485.0195 C 1419.9998 2611.4695 1641.1602 2677.3398 1641.1602 2677.3398 C 1641.1602 2677.3398 1779.8202 2711.8691 1918.4102 2711.8691 C 2056.8202 2711.8691 2195.1602 2677.3398 2195.1602 2677.3398 C 2195.1602 2677.3398 2416.3107 2611.4695 2561.9707 2485.0195 C 2707.6307 2358.5695 2747.9899 2300.2993 2781.4199 2239.5293 C 2814.8499 2178.7593 2803.9108 2139.2292 2787.0508 2105.9492 C 2770.5408 2073.3892 2722.15 1988.1698 2645.5 1916.2598 C 2645.5 1916.2598 2639.2907 1869.6291 2623.7207 1843.2891 C 2623.7207 1843.2891 2644.68 1815.5995 2657.75 1784.5195 C 2668.74 1758.3695 2671.5791 1750.5005 2693.8691 1728.5605 C 2714.9391 1707.8405 2747.4801 1649.0891 2757.8301 1595.6191 C 2768.2288 1541.9667 2768.4189 1507.0653 2752.9121 1486.3418 C 2765.5475 1452.7727 2776.6037 1404.9255 2771.5996 1341.4883 C 2765.2396 1260.9883 2760.0695 1219.8581 2707.9395 1142.0781 C 2648.6895 1053.6981 2579.7204 1004.6196 2483.1504 960.76758 C 2389.8304 918.39458 2361.2892 886.47344 2298.6992 837.02344 C 2237.0592 788.32344 2175.4004 776.64883 2093.6504 759.17383 C 2059.4104 751.85583 1988.9705 743.59294 1918.4805 743.58594 z M 1918.75 756.77539 C 1982.09 756.79439 2045.3408 765.46033 2078.8008 772.61133 C 2158.8408 789.72033 2221.3507 800.17627 2281.2207 848.44727 C 2341.2607 896.84727 2368.5406 935.72684 2460.1406 977.21484 C 2554.7206 1020.0598 2619.5701 1061.6983 2677.5801 1148.2383 C 2728.6201 1224.3783 2738.02 1275.2091 2744.25 1354.0391 C 2748.1581 1403.5983 2740.7129 1442.154 2729.2871 1470.9297 C 2703.4525 1461.1785 2662.7337 1457.3743 2621.75 1460.4707 C 2565.92 1464.6807 2451.9103 1478.7809 2393.3203 1501.4609 C 2393.3203 1501.4609 2421.5872 1453.6549 2442.8887 1422.3027 L 2442.8809 1422.4199 C 2442.8809 1422.4199 2442.9316 1422.2603 2443.0801 1422.0195 C 2443.1119 1421.9728 2443.144 1421.9255 2443.1758 1421.8789 C 2444.6931 1419.7234 2453.9921 1412.146 2508.1992 1420.2207 C 2538.8692 1424.7807 2569.2002 1435.0302 2581.4902 1435.6602 C 2609.2602 1437.0902 2637.1907 1426.9195 2654.7207 1411.7695 C 2654.7207 1411.7695 2632.5909 1421.0299 2614.1309 1422.6699 C 2588.3109 1424.9599 2563.0993 1415.0906 2515.2793 1404.3906 C 2500.6393 1401.1206 2486.6109 1398.2695 2480.2109 1396.9395 C 2473.7609 1395.5895 2470.4208 1390.7105 2468.5508 1386.5605 A 90.694 90.694 0 0 1 2463.4805 1372.3809 L 2463.3809 1372.418 C 2461.5082 1364.2378 2456.1668 1356.1135 2447.8105 1345.9707 C 2443.1361 1340.2969 2436.2307 1332.5668 2427.168 1323.5918 C 2425.7727 1320.697 2424.7935 1309.1159 2487.1895 1296.4395 C 2542.1395 1285.2695 2571.9803 1278.9208 2605.5703 1259.0508 C 2620.9503 1249.9508 2631.8602 1237.5508 2636.4902 1228.5508 C 2643.8402 1214.3008 2643.6504 1194.9198 2629.1504 1177.7598 C 2636.1004 1194.7498 2641.8496 1216.7791 2601.3496 1243.3691 C 2574.8196 1260.7991 2551.4106 1265.1298 2511.6406 1272.5098 C 2463.4106 1281.4598 2441.8606 1278.7003 2422.1406 1277.8203 C 2407.0706 1277.1403 2387.9995 1273.9896 2376.5195 1269.8496 C 2366.114 1266.1092 2345.1978 1258.048 2333.9961 1253.3574 C 2314.158 1242.0208 2291.9033 1231.2215 2267.252 1221.875 L 2268.0293 1222 C 2268.0293 1222 2251.0799 1213.6903 2318.4199 1176.5703 C 2367.5399 1149.5103 2395.2002 1132.4303 2421.4902 1103.5703 C 2433.5202 1090.3603 2447.7292 1067.5898 2448.6992 1058.0098 C 2450.3992 1041.0798 2445.8993 1020.9092 2425.7793 1010.9492 C 2435.6093 1024.1692 2452.2798 1043.5699 2411.8398 1088.9199 C 2392.7798 1110.2899 2370.8195 1124.4091 2336.0195 1145.0391 C 2294.9995 1169.3591 2265.9491 1183.2298 2245.3691 1187.5098 C 2230.5991 1190.5798 2211.9005 1192.2893 2199.9805 1192.0293 C 2189.2581 1191.8019 2168.2055 1190.2541 2155.8984 1189.0996 C 2110.0438 1179.0531 2064.8031 1172.9982 2021.7598 1169.6992 C 2016.7472 1169.315 2011.8469 1168.9573 2007.0273 1168.623 C 2004.7661 1167.5191 1989.8334 1157.1444 2057.0508 1096.2695 C 2109.5308 1048.7495 2149.1991 996.69641 2168.1191 951.19141 C 2177.1791 929.40541 2177.9902 903.41158 2176.1602 891.39258 C 2172.9902 870.64458 2153.4991 844.70269 2125.7891 844.67969 C 2140.3491 851.02569 2174.7995 872.33906 2155.1895 932.91406 C 2143.7895 968.14406 2109.8498 1014.8232 2073.0898 1050.2832 C 2029.7498 1092.0932 1993.3697 1118.6926 1971.6797 1132.3926 C 1962.6497 1138.0926 1929.1607 1151.9428 1914.9707 1156.1328 C 1902.2522 1159.8824 1877.573 1164.4171 1862.2598 1166.6816 C 1847.176 1167.4097 1831.4719 1168.4045 1814.5508 1169.6992 C 1791.32 1171.48 1767.4452 1174.0705 1743.1816 1177.6504 C 1738.5755 1175.5624 1729.5686 1163.4273 1758.8398 1093.75 C 1786.5498 1027.79 1792.2101 963.593 1786.0801 922.25 C 1782.8301 900.386 1774.7703 880.496 1767.8203 871.75 C 1755.8103 856.661 1729.6404 851.04934 1704.6504 859.27734 C 1720.5704 859.84734 1757.5194 858.75366 1766.3594 911.97266 C 1771.4494 942.62566 1769.9702 997.04631 1745.9102 1064.9453 C 1729.3902 1111.5353 1711.4905 1130.6846 1697.9805 1147.7246 C 1692.3505 1154.8146 1668.0398 1176.6845 1657.0898 1184.1445 C 1646.8122 1191.1393 1625.4394 1200.9675 1612.8164 1206.8809 C 1598.765 1211.2281 1584.7278 1215.9918 1570.75 1221.2305 C 1553.9604 1227.523 1538.3 1234.5052 1523.7207 1241.8691 C 1518.6345 1242.2033 1500.2255 1239.4664 1510.4902 1179.3691 C 1519.3102 1127.7591 1525.3708 1070.1808 1513.5508 1041.8008 C 1506.6508 1025.2508 1502.8097 1018.3495 1493.4297 1013.6895 C 1477.2497 1005.6495 1452.6597 1007.2298 1428.1797 1023.7598 C 1464.2497 1017.0398 1483.3698 1019.7307 1493.5898 1039.9707 C 1503.4398 1059.4607 1506.8395 1096.5394 1495.2695 1152.3594 C 1487.6095 1189.3294 1485.9907 1217.8908 1483.7207 1234.8008 C 1482.8207 1241.4908 1478.1204 1255.6292 1474.6504 1263.1992 C 1472.7339 1267.368 1468.2913 1273.7293 1461.4844 1279.582 C 1438.1821 1296.316 1419.9286 1312.6997 1406.7324 1326.0078 C 1401.6616 1327.8531 1385.4339 1326.6089 1340.7305 1279.8496 C 1306.6805 1244.2396 1282.4998 1203.3099 1271.0098 1195.4199 A 28.625 28.625 0 0 0 1239.9004 1193.9395 C 1228.1904 1200.8595 1224.2491 1207.2798 1221.5391 1221.5898 C 1230.0291 1209.3798 1241.4696 1199.2505 1256.8496 1206.7305 C 1272.8796 1214.5305 1280.8698 1249.3191 1317.8398 1288.1191 C 1341.3798 1312.8091 1363.2098 1329.8196 1367.5098 1334.5996 C 1371.8798 1339.4596 1374.4908 1345.6401 1374.5508 1354.3301 C 1374.5862 1359.4799 1374.4737 1361.6971 1373.4102 1370.5918 C 1369.859 1382.759 1373.9106 1394.7139 1387.1602 1413.2695 C 1387.9462 1414.3704 1388.7815 1415.5805 1389.5996 1416.752 C 1388.9029 1419.3713 1382.2399 1426.7553 1324.6797 1412.0605 C 1294.6397 1404.3905 1265.4395 1391.3107 1253.2695 1389.4707 C 1225.7795 1385.3107 1196.9808 1392.6793 1178.0508 1406.0293 C 1178.0508 1406.0293 1200.3899 1399.2892 1218.9199 1398.6992 C 1237.4499 1398.1092 1276.1202 1414.5892 1325.1602 1429.6992 C 1357.5102 1439.6592 1367.4397 1436.5498 1373.6797 1438.5098 C 1379.9197 1440.4698 1391.4304 1441.7292 1407.4004 1454.1992 C 1417.2666 1461.9052 1422.8353 1468.7001 1427.9785 1476.5566 C 1436.6991 1490.8327 1443 1501.4609 1443 1501.4609 C 1384.41 1478.7809 1302.3703 1444.9607 1248.5703 1429.4707 C 1194.7703 1413.9807 1176.6609 1410.2402 1152.7109 1419.7402 C 1138.2654 1425.4702 1127.3419 1442.0249 1120.6797 1466.3223 C 1113.6272 1438.0302 1109.4258 1401.0452 1113.1406 1354.0391 C 1119.3606 1275.2091 1150.46 1192.2301 1201.5 1116.0801 C 1259.51 1029.5501 1281.7596 1012.8205 1376.3496 969.98047 C 1467.9396 928.49247 1528.9795 896.84527 1589.0195 848.44727 C 1648.8995 800.17627 1677.6397 789.72033 1757.6797 772.61133 C 1791.3197 765.42133 1855.08 756.75539 1918.75 756.77539 z "
     style="opacity:1" />
  <path
     d="m 1652.27,2638.12 c 0,0 -212.27,-53.65 -352.1,-175.03 -139.83,-121.38 -178.55,-177.3 -210.64,-235.63 -32.09,-58.33 -21.59,-96.28 -5.4,-128.22 15.84,-31.26 53.45,-104.22 127.03,-173.24 0,0 11.12,-60.24 26.06,-85.52 0,0 -38.42,-53.05 -47.61,-84.09 0,0 37.73,43.98 73.83,51.19 27.46,5.48 52.85,-19.5 68.88,-32.07 0,0 -45.63,-19.92 -67.97,-50.3 a 94.281,94.281 0 0 1 43.78,-8.7 c 11.61,0.52 23.73,2.03 36.66,-0.15 0,0 -104.78,-68.2 -116.76,-99.89 0,0 20.46,-0.9 54.47,4.41 12.88,2 38.29,0.33 48.75,-5.48 0,0 -96.96,-51.41 -118.49,-107.61 0,0 28.8,-10.43 70.77,-0.07 0,0 136.37,77.32 155.85,131.86 0,0 -2.4,30.98 -2.48,46.52 -0.05,8.48 0,15.48 16.95,18.43 16.95,2.95 57.14,13.46 186.49,2.2 61.41,-5.34 132.52,-7.91 172.1,-7.79 38.98,0.11 172.89,0.11 211.87,0 39.58,-0.12 110.69,2.45 172.1,7.79 129.35,11.26 169.53,0.75 186.49,-2.2 16.96,-2.95 17,-9.95 16.95,-18.43 -0.08,-15.54 -2.49,-46.52 -2.49,-46.52 20.72,-60.73 199.71,-113.82 199.71,-113.82 36.62,2.27 75.02,14.25 75.02,14.25 -60.63,48.96 -144.43,76.93 -144.43,76.93 11,9.08 29.56,12.61 47.09,11.79 38.15,-1.8 59.25,6.5 59.06,6.55 -11.97,31.69 -130.32,72.02 -130.32,72.02 3.04,4.24 20.34,10.73 33.18,11.73 22.09,1.72 35.73,6.18 40.75,9.45 -29.64,25.73 -73.54,35.99 -73.66,35.91 12.19,17.05 44.41,46.2 69.55,43.19 28.6,-3.42 74.76,-37.86 74.76,-37.86 -9.19,31.04 -48.54,70.76 -48.54,70.76 14.94,25.28 26.06,85.52 26.06,85.52 73.58,69.02 111.19,141.98 127.03,173.24 16.19,31.94 26.7,69.88 -5.4,128.22 -32.1,58.34 -70.82,114.26 -210.64,235.63 -139.82,121.37 -352.1,175.03 -352.1,175.03 0,0 -132.99,30 -266.01,30 -133.08,0 -266.2,-30 -266.2,-30 z"
     id="path846"
     style="fill:#ffbf19;fill-opacity:1" />
  <path
     d="m 1473.87,1969.1 c 0,0 22.45,-21.55 69.15,-40.41 46.7,-18.86 127.87,-19.77 161.21,5.83 25.15,19.31 29.02,28.6 35.74,48.43 4.3,12.68 5.88,22.08 13.06,35.1 7.18,13.02 22.1,23.35 -1.85,33.28 -23.95,9.93 -33.31,2.63 -55.22,-3.8 -21.91,-6.43 -79.01,-34.57 -115,-46.28 -45.23,-14.71 -73.53,-6.76 -97.49,-15.52 -16.58,-6.07 -12.82,-12.8 -9.6,-16.63 z"
     id="path876" />
  <path
     d="m 1735.41,2036.04 c 0,0 -6.68,-23.14 -11.01,-40.13 -4.33,-16.99 -20.45,-44.19 -43.39,-50.74 -33.18,-9.49 -94.49,-6.13 -153.94,15.71 a 610.126,610.126 0 0 1 80.08,24.69 c 41.08,16.06 63.87,30.5 80.96,42.97 16.16,11.78 33.09,9.98 47.3,7.5 z"
     id="path880"
     style="fill:#ffffff;fill-opacity:1" />
  <path
     d="m 2362.83,1969.1 c 0,0 -19.31,-12.36 -69.15,-20.41 -49.72,-8.04 -127.52,-4.39 -161.21,14.44 -22.57,12.61 -29.71,23.24 -36.78,38.88 -5.52,12.21 -3.59,8.92 -11.32,21.62 -9.63,15.81 -14.18,30.53 0.81,35.02 11.92,3.58 32.25,-10.58 53.12,-19.84 21.57,-9.56 81.45,-25.85 117.44,-37.56 45.23,-14.71 73.53,-6.76 97.49,-15.52 16.58,-6.07 12.82,-12.8 9.6,-16.63 z"
     id="path878" />
  <path
     d="m 1826.65,1678.53 c 0,0 -112.13,2.24 -159.51,7.67 -143.57,16.46 -171.82,7.38 -188.83,6.15 -17.08,-1.24 -13.3,-12.38 -13.3,-12.38 4.55,-45.49 36.35,-125.23 36.35,-125.23 0,0 -58.52,-101.49 -86.19,-140.23 -21.51,-30.11 -18.82,-42.84 1.34,-67.3 20.16,-24.46 73.95,-73.34 174.95,-111.19 82.25,-30.83 173.76,-42.53 250.99,-48.44 77.23,-5.91 74.32,-5.92 151.56,0 77.24,5.92 168.74,17.61 250.99,48.44 101,37.85 154.79,86.73 174.95,111.19 20.16,24.46 22.85,37.19 1.35,67.3 -27.67,38.74 -86.2,140.23 -86.2,140.23 0,0 31.81,79.74 36.35,125.23 0,0 3.79,11.14 -13.3,12.38 -17.01,1.23 -45.26,10.31 -188.82,-6.15 -47.39,-5.43 -159.51,-7.67 -159.51,-7.67 0,0 -45.71,-1 -91.11,-1 -46.17,0 -92.06,1 -92.06,1 z"
     id="path852"
     style="fill:#ffffff;fill-opacity:1" />
  <path
     d="m 1914.15,1268.86 c -8.26,0.98 -10.39,10.03 -9.63,16.18 0.76,6.15 6.27,48.38 5.81,93.18 -0.46,44.8 2.11,77.26 -1.2,120.64 -2.04,26.72 -4.81,53.33 -3.96,89.6 0.4,17.08 5.7,18.6 13.2,18.58 7.5,-0.02 13.05,-9.53 13.22,-22.74 0.17,-13.21 0.17,-48.33 -0.85,-73.88 -1.02,-25.55 -1.79,-37.28 -2.21,-50.48 -0.42,-13.2 0.33,-15.2 4.69,-25.08 5.83,-13.19 4.71,-11.22 7.11,-15.72 2.4,-4.5 3.67,-4.53 5.24,-0.27 a 606.971,606.971 0 0 1 28.63,84.45 c 11.99,46.73 20.43,82.19 21.63,96.8 0.69,8.28 3.69,10.73 8.64,10.91 4.95,0.18 10.49,-0.88 14.74,-4.82 3.62,-3.35 3.93,-5.91 0.7,-16.53 -3.46,-11.39 -14.64,-48.81 -23.87,-79.06 -9.23,-30.25 -27.02,-79.5 -34.94,-101.2 -4.03,-11.05 -4.75,-15.04 -0.37,-27.32 4.47,-12.53 33.72,-77.77 46.94,-105.71 3.77,-7.95 0.75,-11.51 -3.3,-15.1 -4.05,-3.59 -10.79,-6 -14.87,1.78 a 546.929,546.929 0 0 0 -33.47,71.28 c -7.83,20.03 -16.26,47.82 -21.2,60.86 -2.47,6.51 -6.8,7.29 -5.73,-1.8 1.12,-9.42 3.98,-52.45 3.64,-91.82 -0.23,-27.02 -10.33,-33.7 -18.59,-32.73 z"
     id="path956" />
  <path
     d="m 2108.86,1269.5 c 0,0 -41.81,-1.91 -60.92,5.36 -19.11,7.27 -9.63,19.64 -2.31,20.28 a 111.547,111.547 0 0 0 23.52,-0.87 c 7.3,-1.04 10.42,3.71 10.42,10.97 0,7.26 -0.65,56.58 1.24,96.29 1.89,39.71 5.89,76.35 4.89,111.55 -1,35.2 -4.86,52.96 -4.4,77.82 0.18,9.62 5.83,15.18 15,15.16 9.17,-0.02 11.95,-17.05 10.66,-30.11 -1.29,-13.06 -4.67,-51.99 -5.36,-76.18 -0.69,-24.19 -1.95,-64.23 -2.94,-84.87 -0.99,-20.64 1.15,-52.04 0.5,-68.93 -0.65,-16.89 -1.94,-40.1 -2.97,-44.78 -1.03,-4.68 -1.99,-10.26 3.37,-10.28 5.36,-0.02 18.83,2.73 25.15,-0.71 6.32,-3.44 8.4,-10.94 2.88,-16.38 -4.26,-4.2 -11.18,-4.43 -18.73,-4.32 z"
     id="path954" />
  <path
     d="m 1804.78,1588.78 c 0,0 -7.34,0.82 -3.56,-8.81 3.78,-9.63 20.68,-80.21 27.3,-118.9 6.62,-38.69 15.06,-95.84 17.5,-124.01 2.44,-28.17 3.07,-50.84 1.73,-62.44 -1.1,-9.49 -9.08,-10.58 -15.03,-8.74 -5.95,1.84 -18.65,9.94 -42.55,7.69 -6.42,-0.6 -9.16,1.66 -10.05,5.93 -0.89,4.27 1.2,9.29 7.26,11.31 6.06,2.02 23.22,2.53 32.98,0.19 7.47,-1.79 7.24,0.42 7.06,5.08 -0.27,6.89 -8.24,84.87 -16.76,134.04 -8.52,49.17 -12.44,89.8 -24.33,134.4 a 168.083,168.083 0 0 1 -10.54,27.92 c -2.25,4.72 -2.05,7.12 1.43,10.54 2.44,2.4 5.43,3.45 13.24,2.96 7.81,-0.49 31.74,-0.24 42.7,0.19 10.96,0.43 13.32,-3.46 13.32,-9.04 0,-5.58 -8.67,-8.76 -16.97,-8.74 -8.3,0.02 -19.78,0.23 -24.73,0.43 z"
     id="path952" />
  <path
     d="m 1721.37,1269.5 c 0,0 -41.82,-1.91 -60.93,5.36 -19.11,7.27 -9.62,19.64 -2.3,20.28 a 111.6,111.6 0 0 0 23.52,-0.87 c 7.3,-1.04 10.41,3.71 10.41,10.97 0,7.26 -0.64,56.58 1.24,96.29 1.88,39.71 5.89,76.35 4.9,111.55 -0.99,35.2 -4.87,52.96 -4.41,77.82 0.18,9.62 5.84,15.18 15.01,15.16 9.17,-0.02 11.94,-17.05 10.65,-30.11 -1.29,-13.06 -4.66,-51.99 -5.35,-76.18 -0.69,-24.19 -1.96,-64.23 -2.95,-84.87 -0.99,-20.64 1.16,-52.04 0.51,-68.93 -0.65,-16.89 -1.94,-40.1 -2.98,-44.78 -1.04,-4.68 -1.98,-10.26 3.37,-10.28 5.35,-0.02 18.84,2.73 25.15,-0.71 6.31,-3.44 8.41,-10.94 2.88,-16.38 -4.25,-4.2 -11.17,-4.43 -18.72,-4.32 z"
     id="path950" />
  <path
     id="path922"
     d="M 2572.2793 2063.3008 C 2416.5371 2062.9971 2284.351 2110.4988 2167.2148 2179.4766 L 2177.3145 2196.3594 C 2236.9487 2163.1233 2377.4944 2094.4427 2526.2109 2090.9395 C 2656.8909 2087.8495 2737.0001 2097.7195 2840.8301 2122.1895 C 2841.0601 2122.1095 2750.8193 2063.6508 2572.2793 2063.3008 z M 1338.6797 2104.9062 C 1310.1382 2104.7668 1281.9318 2106.5641 1254.4199 2110.5391 C 1017.9399 2144.7091 1000.77 2251.0598 1001 2251.0898 C 1054.05 2193.9198 1170.5502 2145.2103 1300.9102 2135.5703 C 1448.9561 2124.63 1595.5855 2174.6394 1658.5703 2199.8066 L 1667.3926 2181.1543 C 1567.082 2135.6537 1450.3236 2105.4533 1338.6797 2104.9062 z M 2154.0801 2187.3379 C 2148.3826 2190.8028 2142.7074 2194.2987 2137.0801 2197.8594 L 2147.2598 2214.0996 C 2147.2598 2214.0996 2153.2259 2210.2351 2164.0137 2203.9375 L 2154.0801 2187.3379 z M 1681.2734 2187.6055 L 1672.748 2205.623 C 1684.2793 2210.4886 1690.6895 2213.5391 1690.6895 2213.5391 L 1699.2402 2196.3809 C 1693.3241 2193.3996 1687.3258 2190.48 1681.2734 2187.6055 z M 1552.9941 2202.8867 C 1481.1274 2202.8221 1382.4987 2214.092 1281.5703 2260.9004 C 1172.2703 2311.5904 1137.4405 2371.7009 1117.9805 2422.6309 C 1117.9805 2422.6309 1188.0905 2318.7498 1341.7305 2266.7598 C 1456.6413 2227.8702 1537.4414 2222.3378 1627.9727 2227.9746 L 1628.9414 2207.3477 C 1609.8695 2205.0476 1583.9594 2202.9146 1552.9941 2202.8867 z M 2316.5293 2203.7559 C 2270.0073 2203.7961 2231.7525 2208.5667 2206.1621 2212.9844 L 2208.166 2233.5137 C 2298.4231 2223.2964 2379.4611 2224.7264 2496.3105 2257.8301 C 2652.3705 2302.0401 2732.6309 2398.0801 2732.6309 2398.0801 C 2708.1309 2344.8401 2667.8096 2294.0909 2556.0996 2248.9609 C 2468.5777 2213.5934 2383.9936 2203.6974 2316.5293 2203.7559 z M 1644.1777 2209.4062 L 1643.252 2229.0117 C 1649.7064 2229.4913 1656.2202 2230.0196 1662.8105 2230.5898 L 1664.4004 2213.0098 C 1664.4004 2213.0098 1657.1455 2211.3654 1644.1777 2209.4062 z M 2191.0566 2215.8086 C 2178.4227 2218.3825 2171.3496 2220.3594 2171.3496 2220.3594 L 2173.8203 2237.8398 C 2180.2687 2236.9536 2186.6455 2236.1124 2192.9668 2235.3203 L 2191.0566 2215.8086 z M 1735.3145 2245.1016 C 1734.9024 2245.1008 1734.4156 2245.1052 1733.9883 2245.1055 L 1734.3691 2263.5645 C 1740.0962 2263.4718 1745.7011 2263.4928 1751.1504 2263.6406 L 1750.4902 2245.3906 C 1750.4902 2245.3906 1745.0249 2245.1187 1735.3145 2245.1016 z M 2095.1504 2245.3047 C 2089.3098 2245.2694 2086.1309 2245.3906 2086.1309 2245.3906 L 2085.4707 2263.6406 C 2090.9306 2263.4925 2096.5341 2263.4938 2102.25 2263.627 L 2102.625 2245.4277 C 2099.8254 2245.3602 2097.2724 2245.3175 2095.1504 2245.3047 z M 1718.6875 2245.3125 C 1652.3615 2247.0044 1497.1961 2260.9299 1398.9805 2349.9805 C 1287.5505 2451.0005 1265.8197 2552.2892 1271.9297 2602.9492 C 1271.9297 2602.9492 1315.6608 2471.2104 1409.3008 2384.6504 C 1493.3343 2306.9705 1621.6947 2269.0908 1719.0742 2264.0859 L 1718.6875 2245.3125 z M 2117.9199 2246.041 L 2117.543 2264.2988 C 2214.2458 2270.4874 2339.3199 2314.0012 2423.3203 2391.6504 C 2516.9603 2478.2104 2563.4297 2606.0801 2563.4297 2606.0801 C 2560.1597 2544.7701 2529.2706 2452.4602 2431.1406 2364.4902 C 2323.7225 2268.192 2180.6579 2249.4751 2117.9199 2246.041 z M 1784.8301 2295.9609 C 1780.6108 2299.0476 1776.491 2302.31 1772.4844 2305.7207 L 1783.959 2318.7266 C 1790.8882 2311.754 1795.7598 2308.1191 1795.7598 2308.1191 L 1784.8301 2295.9609 z M 1712.6406 2296.8691 C 1707.527 2298.7441 1702.357 2300.6728 1697.1465 2302.6562 L 1703.5957 2319.1055 C 1713.1645 2315.0927 1718.9805 2313.0098 1718.9805 2313.0098 L 1712.6406 2296.8691 z M 2123.9805 2296.8691 L 2117.6406 2313.0098 C 2117.6406 2313.0098 2123.3131 2315.553 2132.6875 2319.9648 L 2139.459 2302.6934 C 2134.1982 2300.6654 2129.0285 2298.72 2123.9805 2296.8691 z M 2052.5703 2297.9297 L 2042.9199 2311.1309 C 2042.9199 2311.1309 2048.0396 2314.7261 2055.502 2320.8145 L 2065.9375 2306.2422 C 2061.6864 2303.4343 2057.242 2300.6682 2052.5703 2297.9297 z M 1682.877 2308.1992 C 1612.7838 2336.0331 1536.6306 2375.6224 1477.7402 2447.7598 C 1387.5202 2558.2598 1425.5005 2665.22 1425.5605 2665.25 C 1432.3505 2609.73 1434.8794 2540.1105 1517.8594 2447.3105 C 1575.1573 2383.2319 1649.2008 2343.6225 1689.5566 2325.2363 L 1682.877 2308.1992 z M 2153.6992 2308.3066 L 2146.5332 2326.584 C 2191.5842 2348.3607 2278.4096 2393.0172 2325.1406 2434.9297 C 2397.4506 2499.7797 2437.9699 2573.5309 2464.1699 2644.7109 C 2464.2299 2644.6809 2466.1809 2549.7498 2365.8809 2439.7598 C 2314.0235 2382.8763 2226.7452 2337.7447 2153.6992 2308.3066 z M 2078.4395 2315.082 L 2067.1621 2330.8301 C 2085.5879 2347.5145 2108.9122 2372.8894 2115.8906 2399.4492 C 2122.4706 2424.4592 2125.6592 2445.4597 2118.4492 2485.9297 C 2118.4492 2485.9297 2148.0504 2440.5791 2134.1504 2395.2891 C 2123.4381 2360.3689 2105.9999 2336.058 2078.4395 2315.082 z M 1761.1992 2316.0762 C 1732.8189 2344.1676 1712.9087 2380.8256 1713.75 2422.3496 C 1715.19 2493.4496 1752.4297 2503.0605 1752.4297 2503.0605 C 1740.8897 2478.2405 1735.0403 2441.7502 1737.3203 2415.9102 C 1740.7094 2377.4801 1758.5294 2348.3736 1773.6113 2330.1484 L 1761.1992 2316.0762 z " />
  <path
     d="m 2101.33,2036.04 c 0,0 3.59,-12.18 8.9,-28.89 4.27,-13.44 25.69,-29.57 48.44,-36.74 32.45,-10.22 91.37,-20.09 151,2.31 0,0 -43.25,3.43 -80.27,14.51 -42.25,12.65 -65.89,20.36 -84.27,27.67 -18.59,7.39 -27.38,9.43 -43.8,21.14 z"
     id="path882"
     style="fill:#ffffff;fill-opacity:1" />
  <path
     d="m 2289.07,1982.63 a 79.676,79.676 0 0 0 -8.44,-27.52 c -43.61,-9.27 -119.37,3.59 -149.35,18.23 a 80.522,80.522 0 0 0 6.88,55.84 c 42.14,-13.27 151.27,-43.46 150.91,-46.55 z"
     id="path892" />
  <path
     d="m 1548.39,1976.83 a 80.1,80.1 0 0 1 22.93,-42.38 c 14.45,-14.02 96.56,-14.36 110.93,-0.82 a 80.281,80.281 0 0 1 9.76,105.81 c -42.53,-19.66 -142.35,-60.89 -142.35,-60.89"
     id="path890" />
  <path
     d="m 1869.5,1739.02 c -33.11,22.53 -43.72,46.67 -43.72,46.67 a 76.528,76.528 0 0 0 -2.85,-23.09 c -12.5,6.58 -28.8,20.45 -41.18,41.14 -20,33.42 -24.92,62.79 -24.92,62.79 l -2.21,11.7 18.87,56.51 c 0,0 -2.69,-47.12 9.33,-89 7.48,-26.09 12.27,-35.21 24.35,-50.93 0,0 -7.15,39.42 18.1,57.75 0,0 5.78,-51.58 45.93,-86.02 9.6,-8.24 35.34,-20.67 47.3,-20.67 12.55,0 27.29,15.86 30.84,24.6 13.6,33.42 4.22,66.29 2.22,84.66 18.25,-8.77 25.97,-38.61 38.99,-47.87 2.48,27.2 -10.24,43.91 0.63,79.03 16.74,54.1 69.87,69.5 69.86,69.45 l 1.18,-24.16 -7.93,-7.81 c 0,0 -32.13,3.66 -49.99,-40.74 -11.13,-27.67 13.03,-68.6 -0.37,-107.75 0,0 -23.11,4.16 -30.46,22.67 0,0 5.32,-27.98 -19.7,-59.1 -6.04,-7.51 -24.82,-18.16 -35.26,-18.16 -10.9,0 -41,12.88 -49.01,18.33 z"
     id="path888" />
  <path
     d="m 2433.24,1898.61 c 0,0 -16.93,-1.42 -30.51,-8.36 -13.58,-6.94 -28.08,-15.96 -56.23,-28.01 -28.15,-12.05 -53.21,-10.57 -70.78,-18.41 0,0 7.26,-14.46 28.9,-19.39 -0.01,-0.03 -28.07,-2.64 -64.07,16.97 -21.72,11.83 -39.03,15.13 -57.27,13.62 a 51.986,51.986 0 0 1 20.22,-35.77 c 0,0 -23.02,2.7 -45.22,28.59 -17.55,20.46 -27.69,43.52 -53.3,54.01 0,0 -7.35,-8.51 -3.73,-27.12 0,0 -16.15,11.11 -21.32,43.7 0,0 -5.33,26.76 -18.82,38.2 -0.03,0.02 -23.06,-38.57 13.94,-94.58 10.22,-15.48 28.16,-26.66 42.71,-28.26 0,0 6.44,7.31 4.97,15.84 0,0 26.39,-45.56 72.47,-56.65 20.83,-5.02 40.04,3.83 46.18,10.26 a 41.488,41.488 0 0 1 -7.87,13.55 c 0,0 46.49,-27.04 95.66,-18.01 14.28,2.62 27.89,11.22 33.83,19.33 0,0 -9.49,11.01 -24.23,15.62 0,0 74.04,13.24 94.47,64.87 z"
     id="path886" />
  <path
     d="m 1405.3,1906.7 c 0,0 16.85,-2.15 30.11,-9.67 13.26,-7.52 27.25,-19.72 54.85,-32.98 27.6,-13.26 52.69,-12.88 69.9,-21.49 0,0 -9.63,-10.78 -29.29,-16.13 0,0 15.92,-4.21 45.45,-0.7 24.57,2.92 29.81,11.98 58.95,11.56 0,0 -1.07,-19.09 -23.29,-32.35 0,0 17.22,-3.88 47.49,16.12 10.13,6.7 18.38,20.05 30.64,27.34 0,0 6.11,-8.81 3.24,-25.3 0,0 32.15,13.01 55.45,66.07 a 431.133,431.133 0 0 0 25.46,47.32 c 0,0 2.46,-47.93 -36.66,-102.26 -22.82,-31.69 -47.4,-37.26 -58.81,-39.55 0,0 -3.3,3.81 -1.27,11.66 0,0 -17.62,-21.77 -56.65,-24.01 -26.37,-1.51 -38.34,4.29 -43.82,10.45 a 19.667,19.667 0 0 0 7.54,12.13 c 0,0 -31.06,-16.18 -79.79,-5.01 -14.15,3.24 -27.38,12.42 -32.95,20.79 0,0 9.95,10.58 24.88,14.55 0,0 -73.27,19 -91.43,71.46 z"
     id="path884" />
  <path
     d="m 1875.78,2031.24 c -33.59,12.2 -48.44,28.64 -48.44,28.64 24.75,-15.2 54.62,-20.68 54.62,-20.68 a 231.563,231.563 0 0 1 36.41,-3.34 229.027,229.027 0 0 1 36.24,3.34 c 0,0 29.87,5.48 54.62,20.68 0,0 -14.85,-16.44 -48.44,-28.64 -33.59,-12.2 -51.43,-12.19 -85.01,0 z"
     id="path872" />
  <path
     d="m 2083.89,1973.78 c 0,0 23.17,-50.46 79.78,-72.44 38.05,-14.78 107.18,-14.68 190.46,32.47 0,0 -98.41,-77.78 -194.77,-48.18 -62.64,19.24 -75.47,88.15 -75.47,88.15 z"
     id="path870" />
  <path
     d="m 1751.76,1967.91 c 0,0 -18.76,-56.38 -75.37,-78.37 -38.06,-14.78 -101.9,-5.3 -194.87,44.27 0,0 102.82,-89.58 199.18,-59.98 62.64,19.24 71.06,94.08 71.06,94.08 z"
     id="path868" />
  <path
     d="m 2246.07,2081.25 c 0,0 59.07,-2.35 98.87,-35.69 21.13,-17.71 20.97,-34.99 20.97,-34.99 0,0 -11.67,20.1 -36.41,36.11 -28.3,18.31 -83.43,34.57 -83.43,34.57 z"
     id="path866" />
  <path
     d="m 1590.61,2081.25 c 0,0 -59.08,-2.35 -98.88,-35.69 -21.12,-17.71 -20.96,-34.99 -20.96,-34.99 0,0 11.66,20.1 36.4,36.11 28.3,18.31 83.44,34.57 83.44,34.57 z"
     id="path864" />
  <path
     d="m 1898.11,2376.08 c -16.41,3.15 -38.05,8.24 -58.06,13.2 -20.16,4.99 -43.35,9.96 -84.32,18.36 -40.97,8.4 -89.79,4.18 -130.56,-18.74 -83.69,-47.05 -43.41,-115.84 -36.17,-124.87 7.24,-9.03 4.71,-14.34 -1.52,-17.32 -7.12,-3.42 -28.63,-0.46 -28.63,-0.46 10.6,-23.16 55.21,-17.72 65.07,-6.06 4.53,5.35 4.36,9.99 2.01,13.91 -2.87,4.77 -4.87,10.48 -8.84,25.25 -7.44,27.67 3.82,71.94 49.47,88.91 45.65,16.97 117.81,12.93 168.95,-3.09 51.14,-16.02 66.14,-37.61 68.84,-49.58 2.7,-11.97 4.76,-40.26 4.76,-40.26 h 18.51 c 0,0 2.06,28.3 4.76,40.26 2.7,11.96 17.9,40.55 68.85,57.18 50.97,16.64 121.5,27.06 166.71,8.91 44.98,-18.06 71.15,-65.92 63.71,-93.59 a 189.325,189.325 0 0 0 -9.85,-28.29 13.362,13.362 0 0 1 3.01,-14.2 c 7.09,-7.25 56.52,-7.6 69.09,4.79 0,0 -22.36,0.62 -29.48,4.04 -6.22,2.98 -7.91,7.2 -2.35,17.34 5.49,10.01 26.29,85.32 -50.5,127.87 -40.92,22.67 -89.32,23.75 -130.56,18.74 -41.52,-5.05 -66.26,-12.3 -84.33,-21.49 -18.37,-9.35 -41.64,-17.66 -58.06,-20.81 -16.42,-3.15 -24.09,-3.16 -40.51,0 z"
     id="path862" />
  <path
     d="m 1907.64,2293.85 c -19.62,-2.34 -30.42,-14.06 -35.55,-26.72 -4.66,-11.48 -2.9,-19.49 2.95,-27.2 6.43,-8.48 -3.16,-19.22 -11.9,-13.69 -5.77,3.66 -2.87,9.66 -0.11,13.17 1.89,2.4 -0.38,3.27 -2.98,3.18 -16.07,-0.53 -35.53,-4.76 -45.66,-28.78 -10.13,-24.02 2.02,-42.22 27.88,-47.04 25.86,-4.82 63.68,18.36 63.68,18.36 0,0 6.25,5.5 12.48,5.5 6.2,0 12.38,-5.5 12.38,-5.5 0,0 37.83,-23.17 63.68,-18.36 25.85,4.81 38.02,23.03 27.88,47.04 -10.14,24.01 -29.59,28.25 -45.66,28.78 -2.6,0.09 -4.88,-0.78 -2.98,-3.18 2.76,-3.51 5.66,-9.51 -0.11,-13.17 -8.75,-5.53 -18.33,5.21 -11.91,13.69 5.85,7.71 7.62,15.72 2.96,27.2 -5.13,12.66 -15.93,24.38 -35.56,26.72 0,0 -5.37,0.58 -10.74,0.58 -5.37,0 -10.73,-0.58 -10.73,-0.58 z"
     id="path860" />
  <path
     d="m 1828.76,2614.18 c -49.56,-10.6 -102.09,-36.19 -140.71,-87.93 -40.58,-54.35 -26.21,-102.51 -26.21,-102.51 2.24,18.3 7.86,58.21 49.03,104.3 41.17,46.09 118.64,63.27 118.64,63.27 0,0 44.56,8 89.05,8 44.34,0 88.61,-8 88.61,-8 0,0 77.48,-17.18 118.65,-63.27 41.17,-46.09 46.79,-86 49.03,-104.3 0,0 14.36,48.16 -26.21,102.51 -38.62,51.74 -91.15,77.33 -140.71,87.93 -49.56,10.6 -129.61,10.6 -179.17,0 z"
     id="path858" />
  <path
     d="m 2380.21,1538.58 c 0,0 -8.32,34.97 6,68.97 0,0 38.84,-46.32 125.73,-78.51 86.05,-31.88 130.18,-39.2 176.78,-45.74 0,0 -38.38,-13.47 -147.66,3.13 -80.19,12.18 -150.28,42.03 -160.85,52.15 z"
     id="path856"
     style="fill:#ffbf19;fill-opacity:1" />
  <path
     d="m 1454.3,1538.58 c 0,0 8.32,34.97 -6,68.97 0,0 -13.4,-31.78 -90.83,-80.46 -77.69,-48.84 -119.45,-72.5 -160.34,-87.12 0,0 43.86,-3.4 141.44,36.86 74.98,30.93 107.81,51.81 115.73,61.75 z"
     id="path854"
     style="fill:#ffbf19;fill-opacity:1" />
  <path
     d="m 2636.09,1515.72 c 33.96,4.56 66.37,18.6 66.37,18.6 -48.91,56.86 -112.77,77.11 -112.77,77.11 14.32,3.49 17.5,2.18 35.03,3.05 24.18,1.2 41.14,10.73 40.95,10.78 -23.07,49.2 -114.54,80.88 -114.54,80.88 10.13,3.47 41.11,7.81 54.29,20.04 -22.21,29.26 -56,43.78 -56.13,43.7 9.15,13.32 26.7,13.01 51.61,6.54 28.21,-7.34 55.68,-32.1 55.68,-32.1 16.15,-14.99 38.05,-39.56 62.75,-99.67 16.82,-40.93 34.53,-108.71 20.45,-130.35 -11.41,-17.54 -71.35,-6.62 -103.69,1.42 z"
     id="path850"
     style="fill:#fbd87e;fill-opacity:1" />
  <path
     d="m 1247.02,1487.12 c -37.2,-8.52 -67.98,4.78 -67.98,4.78 18.69,53.68 71.02,95.96 101.89,111.28 -15.36,0.67 -26.38,-2.65 -41.84,-5.39 -14.61,-2.58 -41.86,-0.64 -41.86,-0.64 20.44,65.45 101.91,105.34 101.91,105.34 -41.35,0.32 -61.1,18.92 -61.1,18.92 17.74,32.79 48.22,51.09 48.22,51.09 -22.84,16.25 -62.82,-3.66 -82.81,-21.21 -28.99,-25.45 -50.8,-103.24 -50.8,-103.24 -7.92,-29.98 -17.72,-74.11 -14.83,-147.01 1.88,-47.59 31.55,-46.36 56.2,-39.04 20.4,6.06 52.98,25.18 53,25.12 z"
     id="path848"
     style="fill:#fbd87e;fill-opacity:1" />
  <path
     d="M 1918.75 756.77539 C 1855.08 756.75539 1791.3197 765.42133 1757.6797 772.61133 C 1677.6397 789.72033 1648.8995 800.17627 1589.0195 848.44727 C 1528.9795 896.84527 1467.9396 928.49247 1376.3496 969.98047 C 1281.7596 1012.8205 1259.51 1029.5501 1201.5 1116.0801 C 1150.46 1192.2301 1119.3606 1275.2091 1113.1406 1354.0391 C 1109.4258 1401.0452 1113.6272 1438.0302 1120.6797 1466.3223 C 1127.3419 1442.0249 1138.2654 1425.4702 1152.7109 1419.7402 C 1176.6609 1410.2402 1194.7703 1413.9807 1248.5703 1429.4707 C 1302.3703 1444.9607 1384.41 1478.7809 1443 1501.4609 C 1443 1501.4609 1436.6991 1490.8327 1427.9785 1476.5566 C 1422.8353 1468.7001 1417.2666 1461.9052 1407.4004 1454.1992 C 1391.4304 1441.7292 1379.9197 1440.4698 1373.6797 1438.5098 C 1367.4397 1436.5498 1357.5102 1439.6592 1325.1602 1429.6992 C 1276.1202 1414.5892 1237.4499 1398.1092 1218.9199 1398.6992 C 1200.3899 1399.2892 1178.0508 1406.0293 1178.0508 1406.0293 C 1196.9808 1392.6793 1225.7795 1385.3107 1253.2695 1389.4707 C 1265.4395 1391.3107 1294.6397 1404.3905 1324.6797 1412.0605 C 1382.2399 1426.7553 1388.9029 1419.3713 1389.5996 1416.752 C 1388.7815 1415.5805 1387.9462 1414.3704 1387.1602 1413.2695 C 1373.9106 1394.7139 1369.859 1382.759 1373.4102 1370.5918 C 1374.4737 1361.6971 1374.5862 1359.4799 1374.5508 1354.3301 C 1374.4908 1345.6401 1371.8798 1339.4596 1367.5098 1334.5996 C 1363.2098 1329.8196 1341.3798 1312.8091 1317.8398 1288.1191 C 1280.8698 1249.3191 1272.8796 1214.5305 1256.8496 1206.7305 C 1241.4696 1199.2505 1230.0291 1209.3798 1221.5391 1221.5898 C 1224.2491 1207.2798 1228.1904 1200.8595 1239.9004 1193.9395 A 28.625 28.625 0 0 1 1271.0098 1195.4199 C 1282.4998 1203.3099 1306.6805 1244.2396 1340.7305 1279.8496 C 1385.4339 1326.6089 1401.6616 1327.8531 1406.7324 1326.0078 C 1419.9286 1312.6997 1438.1821 1296.316 1461.4844 1279.582 C 1468.2913 1273.7293 1472.7339 1267.368 1474.6504 1263.1992 C 1478.1204 1255.6292 1482.8207 1241.4908 1483.7207 1234.8008 C 1485.9907 1217.8908 1487.6095 1189.3294 1495.2695 1152.3594 C 1506.8395 1096.5394 1503.4398 1059.4607 1493.5898 1039.9707 C 1483.3698 1019.7307 1464.2497 1017.0398 1428.1797 1023.7598 C 1452.6597 1007.2298 1477.2497 1005.6495 1493.4297 1013.6895 C 1502.8097 1018.3495 1506.6508 1025.2508 1513.5508 1041.8008 C 1525.3708 1070.1808 1519.3102 1127.7591 1510.4902 1179.3691 C 1500.2255 1239.4664 1518.6345 1242.2033 1523.7207 1241.8691 C 1538.3 1234.5052 1553.9604 1227.523 1570.75 1221.2305 C 1584.7278 1215.9918 1598.765 1211.2281 1612.8164 1206.8809 C 1625.4394 1200.9675 1646.8122 1191.1393 1657.0898 1184.1445 C 1668.0398 1176.6845 1692.3505 1154.8146 1697.9805 1147.7246 C 1711.4905 1130.6846 1729.3902 1111.5353 1745.9102 1064.9453 C 1769.9702 997.04632 1771.4494 942.62566 1766.3594 911.97266 C 1757.5194 858.75366 1720.5704 859.84734 1704.6504 859.27734 C 1729.6404 851.04934 1755.8103 856.661 1767.8203 871.75 C 1774.7703 880.496 1782.8301 900.386 1786.0801 922.25 C 1792.2101 963.593 1786.5498 1027.79 1758.8398 1093.75 C 1729.5686 1163.4273 1738.5755 1175.5624 1743.1816 1177.6504 C 1767.4452 1174.0705 1791.32 1171.48 1814.5508 1169.6992 C 1831.4719 1168.4045 1847.176 1167.4097 1862.2598 1166.6816 C 1877.573 1164.4171 1902.2522 1159.8824 1914.9707 1156.1328 C 1929.1607 1151.9428 1962.6497 1138.0926 1971.6797 1132.3926 C 1993.3697 1118.6926 2029.7498 1092.0932 2073.0898 1050.2832 C 2109.8498 1014.8232 2143.7895 968.14406 2155.1895 932.91406 C 2174.7995 872.33906 2140.3491 851.02569 2125.7891 844.67969 C 2153.4991 844.70269 2172.9902 870.64458 2176.1602 891.39258 C 2177.9902 903.41158 2177.1791 929.40541 2168.1191 951.19141 C 2149.1991 996.69641 2109.5308 1048.7495 2057.0508 1096.2695 C 1989.8334 1157.1444 2004.7661 1167.5191 2007.0273 1168.623 C 2011.8469 1168.9573 2016.7472 1169.315 2021.7598 1169.6992 C 2064.8031 1172.9982 2110.0438 1179.0531 2155.8984 1189.0996 C 2168.2055 1190.2541 2189.2581 1191.8019 2199.9805 1192.0293 C 2211.9005 1192.2893 2230.5991 1190.5798 2245.3691 1187.5098 C 2265.9491 1183.2298 2294.9995 1169.3591 2336.0195 1145.0391 C 2370.8195 1124.4091 2392.7798 1110.2899 2411.8398 1088.9199 C 2452.2798 1043.5699 2435.6093 1024.1692 2425.7793 1010.9492 C 2445.8993 1020.9092 2450.3992 1041.0798 2448.6992 1058.0098 C 2447.7292 1067.5898 2433.5202 1090.3603 2421.4902 1103.5703 C 2395.2002 1132.4303 2367.5399 1149.5103 2318.4199 1176.5703 C 2251.0799 1213.6903 2268.0293 1222 2268.0293 1222 L 2267.252 1221.875 C 2291.9033 1231.2215 2314.158 1242.0208 2333.9961 1253.3574 C 2345.1978 1258.048 2366.114 1266.1092 2376.5195 1269.8496 C 2387.9995 1273.9896 2407.0706 1277.1403 2422.1406 1277.8203 C 2441.8606 1278.7003 2463.4106 1281.4598 2511.6406 1272.5098 C 2551.4106 1265.1298 2574.8196 1260.7991 2601.3496 1243.3691 C 2641.8496 1216.7791 2636.1004 1194.7498 2629.1504 1177.7598 C 2643.6504 1194.9198 2643.8402 1214.3008 2636.4902 1228.5508 C 2631.8602 1237.5508 2620.9503 1249.9508 2605.5703 1259.0508 C 2571.9803 1278.9208 2542.1395 1285.2695 2487.1895 1296.4395 C 2424.7935 1309.1159 2425.7727 1320.697 2427.168 1323.5918 C 2436.2307 1332.5668 2443.1361 1340.2969 2447.8105 1345.9707 C 2456.1668 1356.1135 2461.5082 1364.2378 2463.3809 1372.418 L 2463.4805 1372.3809 A 90.694 90.694 0 0 0 2468.5508 1386.5605 C 2470.4208 1390.7105 2473.7609 1395.5895 2480.2109 1396.9395 C 2486.6109 1398.2695 2500.6393 1401.1206 2515.2793 1404.3906 C 2563.0993 1415.0906 2588.3109 1424.9599 2614.1309 1422.6699 C 2632.5909 1421.0299 2654.7207 1411.7695 2654.7207 1411.7695 C 2637.1907 1426.9195 2609.2602 1437.0902 2581.4902 1435.6602 C 2569.2002 1435.0302 2538.8692 1424.7807 2508.1992 1420.2207 C 2453.9921 1412.146 2444.6931 1419.7234 2443.1758 1421.8789 C 2443.144 1421.9255 2443.1119 1421.9728 2443.0801 1422.0195 C 2442.9316 1422.2603 2442.8809 1422.4199 2442.8809 1422.4199 L 2442.8887 1422.3027 C 2421.5872 1453.6549 2393.3203 1501.4609 2393.3203 1501.4609 C 2451.9103 1478.7809 2565.92 1464.6807 2621.75 1460.4707 C 2662.7337 1457.3743 2703.4525 1461.1785 2729.2871 1470.9297 C 2740.7129 1442.154 2748.1581 1403.5983 2744.25 1354.0391 C 2738.02 1275.2091 2728.6201 1224.3783 2677.5801 1148.2383 C 2619.5701 1061.6983 2554.7206 1020.0598 2460.1406 977.21484 C 2368.5406 935.72684 2341.2607 896.84727 2281.2207 848.44727 C 2221.3507 800.17627 2158.8408 789.72033 2078.8008 772.61133 C 2045.3408 765.46033 1982.09 756.79439 1918.75 756.77539 z "
     style="opacity:1;fill:#ffffff"
     id="path859" />
</svg>
